<?xml version="1.0" standalone="no"?><!DOCTYPE svg PUBLIC "-//W3C//DTD SVG 1.1//EN" "http://www.w3.org/Graphics/SVG/1.1/DTD/svg11.dtd"><svg t="1754749834918" class="icon" viewBox="0 0 1024 1024" version="1.1" xmlns="http://www.w3.org/2000/svg" p-id="6891" xmlns:xlink="http://www.w3.org/1999/xlink" width="200" height="200"><path d="M880.174545 911.941818h-733.090909a122.298182 122.298182 0 0 1-122.181818-122.181818v-443.345455a122.298182 122.298182 0 0 1 122.181818-122.181818h136.378182L360.727273 87.738182a29.090909 29.090909 0 0 1 25.367272-14.778182H640a29.090909 29.090909 0 0 1 24.785455 13.847273l84.596363 137.425454h130.792727a122.298182 122.298182 0 0 1 122.181819 122.181818v443.345455a122.298182 122.298182 0 0 1-122.181819 122.181818z m-733.090909-629.527273a64.116364 64.116364 0 0 0-64 64v443.345455a64.116364 64.116364 0 0 0 64 64h733.090909a64.116364 64.116364 0 0 0 64-64v-443.345455a64.116364 64.116364 0 0 0-64-64H733.090909a29.090909 29.090909 0 0 1-24.785454-13.847272l-84.363637-137.425455h-221.090909L325.818182 267.636364a29.090909 29.090909 0 0 1-25.367273 14.778181z" fill="#e6e6e6" p-id="6892"></path><path d="M513.629091 717.265455A170.356364 170.356364 0 1 1 683.985455 546.909091a170.589091 170.589091 0 0 1-170.356364 170.356364z m0-282.647273A112.174545 112.174545 0 1 0 625.803636 546.909091a112.290909 112.290909 0 0 0-112.174545-112.174546z" fill="#e6e6e6" p-id="6893"></path><path d="M809.890909 343.272727m34.909091 0l0 0q34.909091 0 34.909091 34.909091l0 0q0 34.909091-34.909091 34.909091l0 0q-34.909091 0-34.909091-34.909091l0 0q0-34.909091 34.909091-34.909091Z" fill="#e6e6e6" p-id="6894"></path></svg>